<?xml version="1.0" encoding="utf-8"?>
<!-- Generator: Adobe Illustrator 24.0.0, SVG Export Plug-In . SVG Version: 6.00 Build 0)  -->
<svg version="1.1" id="Layer_1" xmlns="http://www.w3.org/2000/svg" xmlns:xlink="http://www.w3.org/1999/xlink" x="0px" y="0px"
	 viewBox="0 0 100 100" style="enable-background:new 0 0 100 100;" xml:space="preserve">
<style type="text/css">
	.st0{fill:#FFFFFF;}
</style>
<g>
	<path class="st0" d="M100,51.3c0-27.6-22.4-50-50-50S0,23.7,0,51.3c0,21.9,14.1,40.5,33.7,47.3c1.2-0.9,2.6-1.9,2.6-3.7
		c0-2.7-0.1-9.8-0.1-9.8s-2.2,0.4-5.3,0.4c-7.8,0-10.3-5-11.4-7.7c-1.5-3.6-3.5-5.3-5.6-6.7c-1.3-0.8-1.6-1.8-0.1-2.1
		c6.9-1.3,8.7,7.8,13.3,9.2c3.3,1,7.5,0.6,9.6-0.8c0.3-2.8,2.3-5.2,4-6.4C29,69.9,22,65.8,18.4,59.3L18,58.6l-0.9-2.1l-0.3-0.7
		c-1.1-3.3-1.6-7.1-1.6-11.3c0-7.5,2.4-10.3,5.5-14.3c-2.4-8.6,0.9-14.4,0.9-14.4s5.1-1,14.7,5.8c5.2-2.2,19.1-2.4,25.6-0.5
		c4-2.6,11.4-6.4,14.4-5.4c0.8,1.3,2.5,5,1.1,13.3c1,1.8,6.3,5.7,6.3,16.6c-0.1,4-0.5,7.4-1.3,10.3l-0.4,1.5c0,0-0.2,0.7-0.5,1.4
		l-0.3,0.7C77.6,66.9,70.4,69.8,58.9,71c3.7,2.3,4.8,5.3,4.8,13.2s-0.1,9-0.1,10.8c0,1.6,1.3,2.8,2.5,3.7C85.8,92,100,73.3,100,51.3
		z"/>
</g>
</svg>
