<?xml version="1.0" encoding="utf-8"?>
<!-- Generator: Adobe Illustrator 24.0.0, SVG Export Plug-In . SVG Version: 6.00 Build 0)  -->
<svg version="1.1" id="Layer_1" xmlns="http://www.w3.org/2000/svg" xmlns:xlink="http://www.w3.org/1999/xlink" x="0px" y="0px"
	 viewBox="0 0 100 100" style="enable-background:new 0 0 100 100;" xml:space="preserve">
<style type="text/css">
	.st0{fill:#E44D26;}
	.st1{fill:#F16529;}
	.st2{fill:#EBEBEB;}
	.st3{fill:#FFFFFF;}
</style>
<g id="Layer_2_1_">
</g>
<g>
	<path class="st0" d="M94.1,0l-8,90L50,100L14,90L6,0H94.1L94.1,0z"/>
	<path class="st1" d="M50,92.3l29.2-8.1L86,7.4H50V92.3z"/>
	<path class="st2" d="M34.4,29.4H50v-11H22.3l0.3,3l2.7,30.4H50v-11H35.4L34.4,29.4z M36.9,57.3H25.8l1.5,17.3l22.6,6.3H50V69.4l0,0
		l-12.3-3.3L36.9,57.3L36.9,57.3z"/>
	<path class="st3" d="M50,51.8h13.6l-1.3,14.3L50,69.4v11.5l22.6-6.3l0.2-1.9l2.6-29.1l0.3-3H50V51.8L50,51.8z M50,29.4L50,29.4
		h26.7l0.2-2.5l0.5-5.6l0.3-3H50V29.4L50,29.4z"/>
</g>
</svg>
