<?xml version="1.0" encoding="utf-8"?>
<!-- Generator: Adobe Illustrator 24.0.0, SVG Export Plug-In . SVG Version: 6.00 Build 0)  -->
<svg version="1.1" id="Layer_1" xmlns="http://www.w3.org/2000/svg" xmlns:xlink="http://www.w3.org/1999/xlink" x="0px" y="0px"
	 viewBox="0 0 100 100" style="enable-background:new 0 0 100 100;" xml:space="preserve">
<style type="text/css">
	.st0{fill:#F7DF1E;}
</style>
<g id="Layer_2">
</g>
<g>
	<path class="st0" d="M0,0h100v100H0V0z"/>
	<path d="M26.3,83.6l7.7-4.6c1.5,2.6,2.8,4.8,6,4.8c3.1,0,5-1.2,5-5.9v-32h9.4V78c0,9.7-5.7,14.2-14,14.2
		C32.9,92.2,28.5,88.3,26.3,83.6 M59.5,82.6l7.7-4.4c2,3.3,4.6,5.7,9.3,5.7c3.9,0,6.4-1.9,6.4-4.6c0-3.2-2.6-4.4-6.8-6.2l-2.3-1
		c-6.8-2.9-11.3-6.5-11.3-14.2c0-7,5.4-12.4,13.8-12.4c6,0,10.3,2.1,13.4,7.5l-7.3,4.7c-1.6-2.9-3.4-4-6-4c-2.8,0-4.5,1.7-4.5,4
		c0,2.8,1.7,4,5.8,5.7l2.3,1c8,3.4,12.5,6.9,12.5,14.8c0,8.5-6.6,13.1-15.6,13.1C67.9,92.2,62.3,88,59.5,82.6"/>
</g>
</svg>
