<?xml version="1.0" encoding="utf-8"?>
<!-- Generator: Adobe Illustrator 24.0.0, SVG Export Plug-In . SVG Version: 6.00 Build 0)  -->
<svg version="1.1" id="Layer_1" xmlns="http://www.w3.org/2000/svg" xmlns:xlink="http://www.w3.org/1999/xlink" x="0px" y="0px"
	 viewBox="0 0 100 100" style="enable-background:new 0 0 100 100;" xml:space="preserve">
<style type="text/css">
	.st0{fill:#FFFFFF;}
</style>
<path class="st0" d="M7.9,35.4h14.8c4.4,0,7.5,1.3,9.5,3.8c2,2.5,2.6,5.8,1.9,10.1c-0.3,2-0.8,3.9-1.7,5.8c-0.8,1.9-2,3.6-3.5,5.1
	c-1.8,1.9-3.8,3.1-5.9,3.7c-2.1,0.5-4.3,0.8-6.5,0.8H9.8L7.7,75.1H0L7.9,35.4L7.9,35.4 M14.4,41.8l-3.3,16.6c0.2,0,0.4,0.1,0.7,0.1
	c0.3,0,0.5,0,0.8,0c3.5,0,6.5-0.3,8.9-1.1c2.4-0.8,3.9-3.5,4.8-8.1c0.7-3.9,0-6.1-2-6.7c-2-0.6-4.4-0.9-7.4-0.8
	c-0.4,0-0.9,0.1-1.3,0.1C15.1,41.8,14.7,41.8,14.4,41.8L14.4,41.8"/>
<path class="st0" d="M42.9,24.9h7.6l-2.2,10.6h6.9c3.8,0.1,6.6,0.8,8.4,2.3c1.9,1.5,2.4,4.3,1.7,8.4l-3.7,18.4h-7.7L57.4,47
	c0.4-1.8,0.3-3.2-0.3-3.9c-0.6-0.8-1.9-1.2-3.8-1.2l-6.1-0.1l-4.5,22.7h-7.6L42.9,24.9L42.9,24.9"/>
<path class="st0" d="M73.5,35.4h14.8c4.4,0,7.5,1.3,9.5,3.8c2,2.5,2.6,5.8,1.9,10.1c-0.3,2-0.8,3.9-1.7,5.8c-0.8,1.9-2,3.6-3.5,5.1
	c-1.8,1.9-3.8,3.1-5.9,3.7c-2.1,0.5-4.3,0.8-6.5,0.8h-6.6l-2.1,10.5h-7.7L73.5,35.4L73.5,35.4 M80,41.8l-3.3,16.6
	c0.2,0,0.4,0.1,0.7,0.1c0.3,0,0.5,0,0.8,0c3.5,0,6.5-0.3,8.9-1.1c2.4-0.8,3.9-3.5,4.8-8.1c0.7-3.9,0-6.1-2-6.7
	c-2-0.6-4.4-0.9-7.4-0.8c-0.4,0-0.9,0.1-1.3,0.1C80.7,41.8,80.3,41.8,80,41.8L80,41.8"/>
</svg>
