<?xml version="1.0" encoding="utf-8"?>
<!-- Generator: Adobe Illustrator 24.0.0, SVG Export Plug-In . SVG Version: 6.00 Build 0)  -->
<svg version="1.1" id="Layer_1" xmlns="http://www.w3.org/2000/svg" xmlns:xlink="http://www.w3.org/1999/xlink" x="0px" y="0px"
	 viewBox="0 0 100 100" style="enable-background:new 0 0 100 100;" xml:space="preserve">
<style type="text/css">
	.st0{fill:url(#SVGID_1_);}
</style>
<g>
	
		<linearGradient id="SVGID_1_" gradientUnits="userSpaceOnUse" x1="0.9856" y1="100.7522" x2="1.387" y2="100.6133" gradientTransform="matrix(256 0 0 -153.6 -255 15514.6006)">
		<stop  offset="0" style="stop-color:#2298BD"/>
		<stop  offset="1" style="stop-color:#0ED7B5"/>
	</linearGradient>
	<path class="st0" d="M50,20c-13.3,0-21.7,6.7-25,20c5-6.7,10.8-9.2,17.5-7.5c3.8,1,6.5,3.7,9.5,6.8c4.9,5,10.6,10.7,23,10.7
		c13.3,0,21.7-6.7,25-20c-5,6.7-10.8,9.2-17.5,7.5c-3.8-1-6.5-3.7-9.5-6.8C68.1,25.8,62.4,20,50,20z M25,50C11.7,50,3.3,56.7,0,70
		c5-6.7,10.8-9.2,17.5-7.5c3.8,1,6.5,3.7,9.5,6.8c4.9,5,10.6,10.7,23,10.7c13.3,0,21.7-6.7,25-20c-5,6.7-10.8,9.2-17.5,7.5
		c-3.8-1-6.5-3.7-9.5-6.8C43.1,55.8,37.4,50,25,50z"/>
</g>
</svg>
