<?xml version="1.0" encoding="utf-8"?>
<!-- Generator: Adobe Illustrator 24.0.0, SVG Export Plug-In . SVG Version: 6.00 Build 0)  -->
<svg version="1.1" id="Layer_1" xmlns="http://www.w3.org/2000/svg" xmlns:xlink="http://www.w3.org/1999/xlink" x="0px" y="0px"
	 viewBox="0 0 100 100" style="enable-background:new 0 0 100 100;" xml:space="preserve">
<style type="text/css">
	.st0{fill-rule:evenodd;clip-rule:evenodd;fill-opacity:0;}
	.st1{fill:none;stroke:#fff;stroke-width:4;stroke-linejoin:round;stroke-miterlimit:10;}
</style>
<path class="st0" d="M26.4,97.5L3,2.6l94,27.1L26.4,97.5z"/>
<path class="st1" d="M26.4,97.5L3,2.6l94,27.1L26.4,97.5z"/>
<path class="st0" d="M50,16.1l11.7,47.5L14.7,50L50,16.1z"/>
<path class="st1" d="M50,16.1l11.7,47.5L14.7,50L50,16.1z"/>
<path class="st0" d="M38.3,56.5l-5.8-23.6l23.3,6.7L38.3,56.5z"/>
<path class="st1" d="M38.3,56.5l-5.8-23.6l23.3,6.7L38.3,56.5z"/>
<path class="st0" d="M26.7,9.3l5.8,23.6L9.2,26.2L26.7,9.3z"/>
<path class="st1" d="M26.7,9.3l5.8,23.6L9.2,26.2L26.7,9.3z"/>
<path class="st0" d="M73.4,22.8l5.8,23.6l-23.3-6.7L73.4,22.8z"/>
<path class="st1" d="M73.4,22.8l5.8,23.6l-23.3-6.7L73.4,22.8z"/>
<path class="st0" d="M38.3,56.5l5.8,23.6l-23.3-6.7L38.3,56.5z"/>
<path class="st1" d="M38.3,56.5l5.8,23.6l-23.3-6.7L38.3,56.5z"/>
</svg>
