<?xml version="1.0" encoding="utf-8"?>
<!-- Generator: Adobe Illustrator 24.0.0, SVG Export Plug-In . SVG Version: 6.00 Build 0)  -->
<svg version="1.1" id="Layer_1" xmlns="http://www.w3.org/2000/svg" xmlns:xlink="http://www.w3.org/1999/xlink" x="0px" y="0px"
	 viewBox="0 0 100 100" style="enable-background:new 0 0 100 100;" xml:space="preserve">
<style type="text/css">
	.st0{fill:#9B5C8F;}
	.st1{fill:#FFFFFF;}
</style>
<g id="Layer_2">
</g>
<g id="XMLID_1_">
	<path id="XMLID_3_" class="st0" d="M9.3,20.2h81.4c5.2,0,9.3,4.2,9.3,9.3v31.1c0,5.2-4.2,9.3-9.3,9.3H61.5l4,9.8L47.9,70H9.3
		C4.2,70,0,65.8,0,60.6V29.6C0,24.4,4.1,20.2,9.3,20.2z"/>
	<path id="XMLID_9_" class="st1" d="M5.7,28.7c0.6-0.8,1.4-1.2,2.6-1.3c2.1-0.2,3.3,0.8,3.5,2.9c1.3,8.5,2.6,15.7,4.1,21.6l8.9-17
		c0.8-1.5,1.8-2.4,3-2.4c1.8-0.1,2.9,1,3.3,3.4c1,5.4,2.3,10,3.9,13.9c1.1-10.3,2.8-17.8,5.4-22.4c0.6-1.1,1.5-1.7,2.7-1.8
		c0.9-0.1,1.8,0.2,2.6,0.8c0.8,0.6,1.2,1.4,1.3,2.3c0,0.7-0.1,1.3-0.4,2c-1.6,2.9-2.9,7.8-3.9,14.7c-1,6.6-1.4,11.8-1.1,15.5
		c0.1,1-0.1,1.9-0.5,2.7c-0.5,0.9-1.2,1.4-2.2,1.5c-1.1,0.1-2.2-0.4-3.2-1.5c-3.8-3.9-6.8-9.6-9-17.3c-2.6,5.2-4.6,9.1-5.9,11.7
		c-2.4,4.6-4.4,7-6.1,7.1c-1.1,0.1-2-0.9-2.8-2.8C9.7,57,7.4,46.7,5,31.5C4.9,30.4,5.1,29.5,5.7,28.7z M93.1,35.1
		c-1.5-2.6-3.6-4.1-6.5-4.7c-0.8-0.2-1.5-0.2-2.2-0.2c-3.9,0-7.1,2-9.6,6.1c-2.1,3.5-3.2,7.3-3.2,11.5c0,3.1,0.7,5.8,2,8
		c1.5,2.6,3.6,4.1,6.5,4.7c0.8,0.2,1.5,0.2,2.2,0.2c3.9,0,7.1-2,9.6-6.1c2.1-3.5,3.2-7.3,3.2-11.5C95,40,94.4,37.3,93.1,35.1z
		 M87.9,46.4c-0.6,2.7-1.6,4.7-3.1,6c-1.2,1.1-2.3,1.5-3.3,1.3c-1-0.2-1.8-1.1-2.4-2.6c-0.5-1.3-0.7-2.5-0.7-3.7c0-1,0.1-2,0.3-3
		c0.4-1.7,1.1-3.3,2.2-4.8c1.3-2,2.8-2.8,4.2-2.5c1,0.2,1.8,1.1,2.4,2.6c0.5,1.3,0.7,2.5,0.7,3.7C88.2,44.4,88.1,45.4,87.9,46.4z
		 M67.6,35.1c-1.5-2.6-3.7-4.1-6.5-4.7c-0.8-0.2-1.5-0.2-2.2-0.2c-3.9,0-7.1,2-9.6,6.1c-2.1,3.5-3.2,7.3-3.2,11.5c0,3.1,0.7,5.8,2,8
		c1.5,2.6,3.6,4.1,6.5,4.7c0.8,0.2,1.5,0.2,2.2,0.2c3.9,0,7.1-2,9.6-6.1c2.1-3.5,3.2-7.3,3.2-11.5C69.6,40,68.9,37.3,67.6,35.1z
		 M62.4,46.4c-0.6,2.7-1.6,4.7-3.1,6c-1.2,1.1-2.3,1.5-3.3,1.3c-1-0.2-1.8-1.1-2.4-2.6c-0.5-1.3-0.7-2.5-0.7-3.7c0-1,0.1-2,0.3-3
		c0.4-1.7,1.1-3.3,2.2-4.8c1.3-2,2.8-2.8,4.2-2.5c1,0.2,1.8,1.1,2.4,2.6c0.5,1.3,0.7,2.5,0.7,3.7C62.8,44.4,62.6,45.4,62.4,46.4z"/>
</g>
</svg>
