<?xml version="1.0" encoding="utf-8"?>
<!-- Generator: Adobe Illustrator 24.0.0, SVG Export Plug-In . SVG Version: 6.00 Build 0)  -->
<svg version="1.1" id="Layer_1" xmlns="http://www.w3.org/2000/svg" xmlns:xlink="http://www.w3.org/1999/xlink" x="0px" y="0px"
	 viewBox="0 0 100 100" style="enable-background:new 0 0 100 100;" xml:space="preserve">
<style type="text/css">
	.st0{fill:#FFFFFF;}
</style>
<g id="W_Mark_2_">
	<path class="st0" d="M50,3c6.3,0,12.5,1.2,18.3,3.7c2.8,1.2,5.5,2.6,8,4.3c2.5,1.7,4.8,3.6,7,5.7c2.1,2.1,4.1,4.5,5.7,7
		c1.7,2.5,3.2,5.2,4.3,8C95.8,37.5,97,43.7,97,50s-1.2,12.5-3.7,18.3c-1.2,2.8-2.6,5.5-4.3,8c-1.7,2.5-3.6,4.8-5.7,7
		c-2.1,2.1-4.5,4.1-7,5.7c-2.5,1.7-5.2,3.2-8,4.3C62.5,95.8,56.3,97,50,97c-6.3,0-12.5-1.2-18.3-3.7c-2.8-1.2-5.5-2.6-8-4.3
		c-2.5-1.7-4.8-3.6-7-5.7c-2.1-2.1-4.1-4.5-5.7-7c-1.7-2.5-3.2-5.2-4.3-8C4.2,62.5,3,56.3,3,50s1.2-12.5,3.7-18.3
		c1.2-2.8,2.6-5.5,4.3-8c1.7-2.5,3.6-4.8,5.7-7c2.1-2.1,4.5-4.1,7-5.7c2.5-1.7,5.2-3.2,8-4.3C37.5,4.2,43.7,3,50,3 M50,0
		C22.4,0,0,22.4,0,50c0,27.6,22.4,50,50,50c27.6,0,50-22.4,50-50C100,22.4,77.6,0,50,0L50,0z"/>
	<path class="st0" d="M8.3,50c0,16.5,9.6,30.7,23.5,37.5L11.9,33C9.6,38.2,8.3,44,8.3,50z M78.1,47.9c0-5.2-1.9-8.7-3.4-11.5
		c-2.1-3.4-4.1-6.3-4.1-9.8c0-3.8,2.9-7.4,7-7.4c0.2,0,0.4,0,0.5,0C70.7,12.5,60.8,8.3,50,8.3c-14.6,0-27.4,7.5-34.8,18.8
		c1,0,1.9,0.1,2.7,0.1c4.4,0,11.1-0.5,11.1-0.5c2.2-0.1,2.5,3.2,0.3,3.4c0,0-2.3,0.3-4.8,0.4l15.2,45.1l9.1-27.3l-6.5-17.8
		c-2.2-0.1-4.4-0.4-4.4-0.4c-2.2-0.1-2-3.6,0.3-3.4c0,0,6.9,0.5,11,0.5c4.4,0,11.1-0.5,11.1-0.5c2.2-0.1,2.5,3.2,0.3,3.4
		c0,0-2.3,0.3-4.8,0.4l15.1,44.8l4.3-13.6C77,55.7,78.1,51.5,78.1,47.9z M50.7,53.6L38.2,90c3.7,1.1,7.7,1.7,11.8,1.7
		c4.9,0,9.5-0.8,13.8-2.4c-0.1-0.2-0.2-0.4-0.3-0.6L50.7,53.6z M86.6,30c0.2,1.3,0.3,2.8,0.3,4.3c0,4.2-0.8,9-3.2,14.9L70.9,86
		c12.4-7.2,20.7-20.6,20.7-36C91.7,42.8,89.8,35.9,86.6,30z"/>
</g>
</svg>
